<svg width="68" height="68" viewBox="0 0 68 68" fill="none" xmlns="http://www.w3.org/2000/svg">
<path d="M33.85 0.349999C33.7812 0.3625 33.7125 0.381249 33.65 0.399999C32.9062 0.56875 32.3812 1.2375 32.4 2V11.6C32.3937 12.175 32.6937 12.7125 33.1937 13.0062C33.6937 13.2937 34.3062 13.2937 34.8062 13.0062C35.3062 12.7125 35.6062 12.175 35.6 11.6V2C35.6187 1.5375 35.4312 1.09375 35.1 0.781248C34.7625 0.4625 34.3062 0.306249 33.85 0.349999ZM11.05 9.75C10.45 9.85625 9.96874 10.2937 9.79999 10.875C9.63124 11.4625 9.80624 12.0875 10.25 12.5L17.05 19.3C17.4375 19.775 18.0562 19.9937 18.6562 19.8562C19.25 19.7188 19.7187 19.25 19.8562 18.6562C19.9937 18.0562 19.775 17.4375 19.3 17.05L12.5 10.25C12.1687 9.89375 11.6875 9.7125 11.2 9.75C11.15 9.75 11.1 9.75 11.05 9.75ZM56.45 9.75C56.0875 9.8 55.75 9.98125 55.5 10.25L48.7 17.05C48.225 17.4375 48.0062 18.0562 48.1437 18.6562C48.2812 19.25 48.75 19.7188 49.3437 19.8562C49.9437 19.9937 50.5625 19.775 50.95 19.3L57.75 12.5C58.25 12.025 58.3937 11.2812 58.1 10.6562C57.8 10.025 57.1375 9.6625 56.45 9.75ZM33.85 18C33.8 18.0125 33.75 18.0312 33.7 18.05C33.6 18.0562 33.5 18.075 33.4 18.1C33.3812 18.1187 33.3687 18.1312 33.35 18.15C24.8625 18.5125 18 25.425 18 34C18 42.8062 25.1937 50 34 50C42.8062 50 50 42.8062 50 34C50 25.4562 43.1937 18.5687 34.75 18.15C34.6937 18.15 34.6562 18.1 34.6 18.1C34.4375 18.0375 34.2687 18.0062 34.1 18C34.0687 18 34.0312 18 34 18C33.95 18 33.9 18 33.85 18ZM33.9 21.2C33.9312 21.2 33.9687 21.2 34 21.2C34.05 21.2 34.1 21.2 34.15 21.2C41.15 21.2812 46.8 26.9812 46.8 34C46.8 41.075 41.075 46.8 34 46.8C26.9312 46.8 21.2 41.075 21.2 34C21.2 26.9625 26.875 21.2562 33.9 21.2ZM1.54999 32.4C0.66874 32.525 0.0499897 33.3437 0.17499 34.225C0.29999 35.1062 1.11874 35.725 1.99999 35.6H11.6C12.175 35.6062 12.7125 35.3062 13.0062 34.8062C13.2937 34.3062 13.2937 33.6937 13.0062 33.1937C12.7125 32.6937 12.175 32.3937 11.6 32.4H1.99999C1.94999 32.4 1.89999 32.4 1.84999 32.4C1.79999 32.4 1.74999 32.4 1.69999 32.4C1.64999 32.4 1.59999 32.4 1.54999 32.4ZM55.95 32.4C55.0687 32.525 54.45 33.3437 54.575 34.225C54.7 35.1062 55.5187 35.725 56.4 35.6H66C66.575 35.6062 67.1125 35.3062 67.4062 34.8062C67.6937 34.3062 67.6937 33.6937 67.4062 33.1937C67.1125 32.6937 66.575 32.3937 66 32.4H56.4C56.35 32.4 56.3 32.4 56.25 32.4C56.2 32.4 56.15 32.4 56.1 32.4C56.05 32.4 56 32.4 55.95 32.4ZM18 48.2C17.6375 48.25 17.3 48.4312 17.05 48.7L10.25 55.5C9.77499 55.8875 9.55624 56.5062 9.69374 57.1062C9.83124 57.7 10.3 58.1687 10.8937 58.3062C11.4937 58.4437 12.1125 58.225 12.5 57.75L19.3 50.95C19.775 50.4937 19.9187 49.7875 19.6625 49.1812C19.4125 48.575 18.8062 48.1875 18.15 48.2C18.1 48.2 18.05 48.2 18 48.2ZM49.5 48.2C48.9 48.3062 48.4187 48.7437 48.25 49.325C48.0812 49.9125 48.2562 50.5375 48.7 50.95L55.5 57.75C55.8875 58.225 56.5062 58.4437 57.1062 58.3062C57.7 58.1687 58.1687 57.7 58.3062 57.1062C58.4437 56.5062 58.225 55.8875 57.75 55.5L50.95 48.7C50.65 48.3812 50.2375 48.2062 49.8 48.2C49.75 48.2 49.7 48.2 49.65 48.2C49.6 48.2 49.55 48.2 49.5 48.2ZM33.85 54.75C33.7812 54.7625 33.7125 54.7812 33.65 54.8C32.9062 54.9687 32.3812 55.6375 32.4 56.4V66C32.3937 66.575 32.6937 67.1125 33.1937 67.4062C33.6937 67.6937 34.3062 67.6937 34.8062 67.4062C35.3062 67.1125 35.6062 66.575 35.6 66V56.4C35.6187 55.9375 35.4312 55.4937 35.1 55.1812C34.7625 54.8625 34.3062 54.7062 33.85 54.75Z" fill="black"/>
</svg>
