<svg width="68" height="68" viewBox="0 0 68 68" fill="none" xmlns="http://www.w3.org/2000/svg">
<path d="M33.85 0.35C33.7812 0.362496 33.7125 0.381248 33.65 0.4C32.9062 0.568752 32.3812 1.2375 32.4 2V11.6C32.3937 12.175 32.6937 12.7125 33.1937 13.0063C33.6937 13.2938 34.3062 13.2938 34.8062 13.0063C35.3062 12.7125 35.6062 12.175 35.6 11.6V2C35.6187 1.5375 35.4312 1.09374 35.1 0.781247C34.7625 0.462495 34.3062 0.306256 33.85 0.35ZM11.05 9.75C10.45 9.85625 9.96874 10.2937 9.79998 10.875C9.63123 11.4625 9.80624 12.0875 10.25 12.5L17.05 19.3C17.4375 19.775 18.0562 19.9938 18.6562 19.8563C19.25 19.7188 19.7187 19.25 19.8562 18.6563C19.9937 18.0563 19.775 17.4375 19.3 17.05L12.5 10.25C12.1687 9.89376 11.6875 9.71251 11.2 9.75001C11.15 9.75001 11.1 9.75 11.05 9.75ZM56.45 9.75C56.0875 9.8 55.75 9.98125 55.5 10.25L48.7 17.05C48.225 17.4375 48.0062 18.0563 48.1437 18.6563C48.2812 19.25 48.75 19.7188 49.3437 19.8563C49.9437 19.9938 50.5625 19.775 50.95 19.3L57.75 12.5C58.25 12.025 58.3937 11.2812 58.1 10.6563C57.8 10.025 57.1375 9.66251 56.45 9.75ZM33.85 18C33.8 18.0125 33.75 18.0312 33.7 18.05C33.6 18.0563 33.5 18.075 33.4 18.1C33.3812 18.1188 33.3687 18.1312 33.35 18.15C24.8625 18.5125 18 25.425 18 34C18 42.8063 25.1937 50 34 50C42.8062 50 50 42.8063 50 34C50 25.4563 43.1937 18.5688 34.75 18.15C34.6937 18.15 34.6562 18.1 34.6 18.1C34.4375 18.0375 34.2687 18.0063 34.1 18C34.0687 18 34.0312 18 34 18C33.95 18 33.9 18 33.85 18ZM33.9 21.2C33.9312 21.2 33.9687 21.2 34 21.2C34.05 21.2 34.1 21.2 34.15 21.2C41.15 21.2812 46.8 26.9812 46.8 34C46.8 41.075 41.075 46.8 34 46.8C26.9312 46.8 21.2 41.075 21.2 34C21.2 26.9625 26.875 21.2563 33.9 21.2ZM1.54998 32.4C0.668736 32.525 0.0499836 33.3437 0.174992 34.225C0.3 35.1063 1.11874 35.725 2 35.6H11.6C12.175 35.6063 12.7125 35.3063 13.0063 34.8063C13.2938 34.3063 13.2938 33.6938 13.0063 33.1938C12.7125 32.6938 12.175 32.3938 11.6 32.4H2C1.95 32.4 1.9 32.4 1.85 32.4C1.8 32.4 1.75 32.4 1.7 32.4C1.65 32.4 1.59998 32.4 1.54998 32.4ZM55.95 32.4C55.0687 32.525 54.45 33.3437 54.575 34.225C54.7 35.1063 55.5187 35.725 56.4 35.6H66C66.575 35.6063 67.1125 35.3063 67.4063 34.8063C67.6938 34.3063 67.6938 33.6938 67.4063 33.1938C67.1125 32.6938 66.575 32.3938 66 32.4H56.4C56.35 32.4 56.3 32.4 56.25 32.4C56.2 32.4 56.15 32.4 56.1 32.4C56.05 32.4 56 32.4 55.95 32.4ZM18 48.2C17.6375 48.25 17.3 48.4312 17.05 48.7L10.25 55.5C9.77499 55.8875 9.55624 56.5063 9.69373 57.1063C9.83123 57.7 10.3 58.1687 10.8937 58.3063C11.4937 58.4438 12.1125 58.225 12.5 57.75L19.3 50.95C19.775 50.4937 19.9187 49.7875 19.6625 49.1812C19.4125 48.575 18.8062 48.1875 18.15 48.2C18.1 48.2 18.05 48.2 18 48.2ZM49.5 48.2C48.9 48.3063 48.4187 48.7437 48.25 49.325C48.0812 49.9125 48.2562 50.5375 48.7 50.95L55.5 57.75C55.8875 58.225 56.5062 58.4438 57.1062 58.3063C57.7 58.1688 58.1687 57.7 58.3062 57.1063C58.4437 56.5063 58.225 55.8875 57.75 55.5L50.95 48.7C50.65 48.3813 50.2375 48.2063 49.8 48.2C49.75 48.2 49.7 48.2 49.65 48.2C49.6 48.2 49.55 48.2 49.5 48.2ZM33.85 54.75C33.7812 54.7625 33.7125 54.7812 33.65 54.8C32.9062 54.9688 32.3812 55.6375 32.4 56.4V66C32.3937 66.575 32.6937 67.1125 33.1937 67.4062C33.6937 67.6938 34.3062 67.6938 34.8062 67.4062C35.3062 67.1125 35.6062 66.575 35.6 66V56.4C35.6187 55.9375 35.4312 55.4937 35.1 55.1812C34.7625 54.8625 34.3062 54.7063 33.85 54.75Z" fill="white"/>
</svg>
